<mxfile host="Electron" modified="2023-05-07T12:25:01.119Z" agent="Mozilla/5.0 (Windows NT 10.0; Win64; x64) AppleWebKit/537.36 (KHTML, like Gecko) draw.io/21.2.8 Chrome/112.0.5615.165 Electron/24.2.0 Safari/537.36" etag="IwxbZSehxcIMm4Ued5qe" version="21.2.8" type="device">
  <diagram id="R2lEEEUBdFMjLlhIrx00" name="Page-1">
    <mxGraphModel dx="1493" dy="709" grid="0" gridSize="10" guides="1" tooltips="1" connect="1" arrows="1" fold="1" page="1" pageScale="1" pageWidth="2000" pageHeight="2000" math="0" shadow="0" extFonts="Permanent Marker^https://fonts.googleapis.com/css?family=Permanent+Marker">
      <root>
        <mxCell id="0" />
        <mxCell id="1" parent="0" />
        <mxCell id="l_1M2YiM3meL8GNGFhTw-5" value="Administrator" style="rounded=0;whiteSpace=wrap;html=1;fillColor=#b1ddf0;strokeColor=#10739e;" parent="1" vertex="1">
          <mxGeometry x="1675" y="570" width="100" height="40" as="geometry" />
        </mxCell>
        <mxCell id="l_1M2YiM3meL8GNGFhTw-6" value="Customer" style="rounded=0;whiteSpace=wrap;html=1;fillColor=#b1ddf0;strokeColor=#10739e;" parent="1" vertex="1">
          <mxGeometry x="30" y="570" width="100" height="40" as="geometry" />
        </mxCell>
        <mxCell id="l_1M2YiM3meL8GNGFhTw-7" value="Vendor" style="rounded=0;whiteSpace=wrap;html=1;fillColor=#b1ddf0;strokeColor=#10739e;" parent="1" vertex="1">
          <mxGeometry x="240" y="650" width="100" height="40" as="geometry" />
        </mxCell>
        <mxCell id="l_1M2YiM3meL8GNGFhTw-10" value="&lt;br&gt;Register for vendor account&lt;br&gt;&lt;br&gt;HTML/PHP" style="rounded=1;whiteSpace=wrap;html=1;fillColor=#b1ddf0;strokeColor=#10739e;" parent="1" vertex="1">
          <mxGeometry x="510" y="640" width="120" height="70" as="geometry" />
        </mxCell>
        <mxCell id="l_1M2YiM3meL8GNGFhTw-11" value="2.1" style="rounded=1;whiteSpace=wrap;html=1;fillColor=#1ba1e2;fontColor=#ffffff;strokeColor=#006EAF;" parent="1" vertex="1">
          <mxGeometry x="510" y="625" width="120" height="28" as="geometry" />
        </mxCell>
        <mxCell id="l_1M2YiM3meL8GNGFhTw-16" value="&lt;br&gt;Add to cart&lt;br&gt;&lt;br&gt;HTML/PHP" style="rounded=1;whiteSpace=wrap;html=1;fillColor=#b1ddf0;strokeColor=#10739e;" parent="1" vertex="1">
          <mxGeometry x="510" y="1000" width="120" height="70" as="geometry" />
        </mxCell>
        <mxCell id="l_1M2YiM3meL8GNGFhTw-17" value="6.1" style="rounded=1;whiteSpace=wrap;html=1;fillColor=#1ba1e2;fontColor=#ffffff;strokeColor=#006EAF;" parent="1" vertex="1">
          <mxGeometry x="510" y="980" width="120" height="30" as="geometry" />
        </mxCell>
        <mxCell id="l_1M2YiM3meL8GNGFhTw-18" value="&lt;br&gt;Complete order&lt;br&gt;&lt;br&gt;HTML/PHP" style="rounded=1;whiteSpace=wrap;html=1;fillColor=#b1ddf0;strokeColor=#10739e;" parent="1" vertex="1">
          <mxGeometry x="1430" y="1060" width="120" height="70" as="geometry" />
        </mxCell>
        <mxCell id="l_1M2YiM3meL8GNGFhTw-19" value="10.1" style="rounded=1;whiteSpace=wrap;html=1;fillColor=#1ba1e2;fontColor=#ffffff;strokeColor=#006EAF;" parent="1" vertex="1">
          <mxGeometry x="1430" y="1050" width="120" height="27" as="geometry" />
        </mxCell>
        <mxCell id="l_1M2YiM3meL8GNGFhTw-28" value="&lt;br&gt;Search products&lt;br&gt;Request&amp;nbsp;&lt;br&gt;&lt;br&gt;HTML/PHP" style="rounded=1;whiteSpace=wrap;html=1;fillColor=#b1ddf0;strokeColor=#10739e;" parent="1" vertex="1">
          <mxGeometry x="510" y="790" width="120" height="70" as="geometry" />
        </mxCell>
        <mxCell id="l_1M2YiM3meL8GNGFhTw-29" value="5.1" style="rounded=1;whiteSpace=wrap;html=1;fillColor=#1ba1e2;fontColor=#ffffff;strokeColor=#006EAF;" parent="1" vertex="1">
          <mxGeometry x="510" y="772.5" width="120" height="26" as="geometry" />
        </mxCell>
        <mxCell id="l_1M2YiM3meL8GNGFhTw-30" value="&lt;br&gt;Edit feedback&lt;br&gt;&lt;br&gt;HTML/PHP" style="rounded=1;whiteSpace=wrap;html=1;fillColor=#b1ddf0;strokeColor=#10739e;" parent="1" vertex="1">
          <mxGeometry x="1642" y="714" width="120" height="70" as="geometry" />
        </mxCell>
        <mxCell id="l_1M2YiM3meL8GNGFhTw-31" value="11.1" style="rounded=1;whiteSpace=wrap;html=1;fillColor=#1ba1e2;fontColor=#ffffff;strokeColor=#006EAF;" parent="1" vertex="1">
          <mxGeometry x="1642" y="698" width="120" height="25" as="geometry" />
        </mxCell>
        <mxCell id="l_1M2YiM3meL8GNGFhTw-32" value="D1" style="rounded=0;whiteSpace=wrap;html=1;fontSize=14;fillColor=#1ba1e2;fontColor=#ffffff;strokeColor=#006EAF;" parent="1" vertex="1">
          <mxGeometry x="664.5" y="180" width="30" height="30" as="geometry" />
        </mxCell>
        <mxCell id="l_1M2YiM3meL8GNGFhTw-33" value="&lt;font style=&quot;font-size: 12px;&quot;&gt;MySQL: Vendor accounts Table&lt;/font&gt;" style="rounded=0;whiteSpace=wrap;html=1;fontSize=14;fillColor=#b1ddf0;strokeColor=#10739e;" parent="1" vertex="1">
          <mxGeometry x="694.5" y="180" width="110" height="30" as="geometry" />
        </mxCell>
        <mxCell id="l_1M2YiM3meL8GNGFhTw-34" value="D3" style="rounded=0;whiteSpace=wrap;html=1;fontSize=14;fillColor=#1ba1e2;fontColor=#ffffff;strokeColor=#006EAF;" parent="1" vertex="1">
          <mxGeometry x="1490" y="11" width="30" height="48.92" as="geometry" />
        </mxCell>
        <mxCell id="AD6_e6lMKZ-jqI_7Om2i-16" style="edgeStyle=orthogonalEdgeStyle;rounded=0;orthogonalLoop=1;jettySize=auto;html=1;exitX=0.75;exitY=1;exitDx=0;exitDy=0;entryX=1.025;entryY=0.6;entryDx=0;entryDy=0;entryPerimeter=0;" parent="1" target="zZGCTbQCLXwKK4zY46dJ-52" edge="1">
          <mxGeometry relative="1" as="geometry">
            <mxPoint x="1594" y="857" as="targetPoint" />
            <mxPoint x="1593.5" y="59.91999999999996" as="sourcePoint" />
            <Array as="points">
              <mxPoint x="1594" y="832" />
            </Array>
          </mxGeometry>
        </mxCell>
        <mxCell id="l_1M2YiM3meL8GNGFhTw-35" value="&lt;font style=&quot;font-size: 12px;&quot;&gt;MySQL: Store and Product information Table&lt;/font&gt;" style="rounded=0;whiteSpace=wrap;html=1;fontSize=14;fillColor=#b1ddf0;strokeColor=#10739e;" parent="1" vertex="1">
          <mxGeometry x="1520" y="11" width="110" height="48.92" as="geometry" />
        </mxCell>
        <mxCell id="l_1M2YiM3meL8GNGFhTw-36" value="D5" style="rounded=0;whiteSpace=wrap;html=1;fontSize=14;fillColor=#1ba1e2;fontColor=#ffffff;strokeColor=#006EAF;" parent="1" vertex="1">
          <mxGeometry x="1405" y="1279.5" width="30" height="30" as="geometry" />
        </mxCell>
        <mxCell id="l_1M2YiM3meL8GNGFhTw-37" value="&lt;font style=&quot;font-size: 12px;&quot;&gt;MySQL: Order information Table&lt;/font&gt;" style="rounded=0;whiteSpace=wrap;html=1;fontSize=14;fillColor=#b1ddf0;strokeColor=#10739e;" parent="1" vertex="1">
          <mxGeometry x="1435" y="1280" width="110" height="30" as="geometry" />
        </mxCell>
        <mxCell id="l_1M2YiM3meL8GNGFhTw-40" value="D4" style="rounded=0;whiteSpace=wrap;html=1;fontSize=14;fillColor=#1ba1e2;fontColor=#ffffff;strokeColor=#006EAF;" parent="1" vertex="1">
          <mxGeometry x="774.5" y="1215.5" width="30" height="30" as="geometry" />
        </mxCell>
        <mxCell id="l_1M2YiM3meL8GNGFhTw-41" value="&lt;font style=&quot;font-size: 12px;&quot;&gt;MySQL: Shopping Cart Table&lt;/font&gt;" style="rounded=0;whiteSpace=wrap;html=1;fontSize=14;fillColor=#b1ddf0;strokeColor=#10739e;" parent="1" vertex="1">
          <mxGeometry x="804.5" y="1215.5" width="110" height="30" as="geometry" />
        </mxCell>
        <mxCell id="l_1M2YiM3meL8GNGFhTw-42" value="D2" style="rounded=0;whiteSpace=wrap;html=1;fontSize=14;fillColor=#1ba1e2;fontColor=#ffffff;strokeColor=#006EAF;" parent="1" vertex="1">
          <mxGeometry x="210" y="180" width="30" height="30" as="geometry" />
        </mxCell>
        <mxCell id="l_1M2YiM3meL8GNGFhTw-43" value="&lt;font style=&quot;font-size: 12px;&quot;&gt;MySQL: Customer accounts Table&lt;/font&gt;" style="rounded=0;whiteSpace=wrap;html=1;fontSize=14;fillColor=#b1ddf0;strokeColor=#10739e;" parent="1" vertex="1">
          <mxGeometry x="240" y="180" width="110" height="30" as="geometry" />
        </mxCell>
        <mxCell id="l_1M2YiM3meL8GNGFhTw-48" value="D6" style="rounded=0;whiteSpace=wrap;html=1;fontSize=14;fillColor=#1ba1e2;fontColor=#ffffff;strokeColor=#006EAF;" parent="1" vertex="1">
          <mxGeometry x="1222" y="1442" width="30" height="30" as="geometry" />
        </mxCell>
        <mxCell id="l_1M2YiM3meL8GNGFhTw-49" value="&lt;font style=&quot;font-size: 12px;&quot;&gt;MySQL: Payment information Table&lt;/font&gt;" style="rounded=0;whiteSpace=wrap;html=1;fontSize=14;fillColor=#b1ddf0;strokeColor=#10739e;" parent="1" vertex="1">
          <mxGeometry x="1252" y="1442" width="120" height="30" as="geometry" />
        </mxCell>
        <mxCell id="l_1M2YiM3meL8GNGFhTw-54" value="&lt;font style=&quot;font-size: 10px;&quot;&gt;HTML:&lt;br&gt;Provide customer credentials&lt;/font&gt;" style="endArrow=classic;html=1;rounded=0;fontSize=12;exitX=1;exitY=0.5;exitDx=0;exitDy=0;entryX=0.5;entryY=1;entryDx=0;entryDy=0;" parent="1" source="l_1M2YiM3meL8GNGFhTw-6" target="zZGCTbQCLXwKK4zY46dJ-43" edge="1">
          <mxGeometry x="0.1646" width="50" height="50" relative="1" as="geometry">
            <mxPoint x="585" y="785" as="sourcePoint" />
            <mxPoint x="635" y="735" as="targetPoint" />
            <Array as="points">
              <mxPoint x="280" y="590" />
            </Array>
            <mxPoint as="offset" />
          </mxGeometry>
        </mxCell>
        <mxCell id="l_1M2YiM3meL8GNGFhTw-59" value="" style="endArrow=classic;html=1;rounded=0;fontSize=10;exitX=0.5;exitY=0;exitDx=0;exitDy=0;entryX=0.379;entryY=1.059;entryDx=0;entryDy=0;entryPerimeter=0;" parent="1" source="zZGCTbQCLXwKK4zY46dJ-44" target="l_1M2YiM3meL8GNGFhTw-43" edge="1">
          <mxGeometry width="50" height="50" relative="1" as="geometry">
            <mxPoint x="720" y="680" as="sourcePoint" />
            <mxPoint x="280" y="220" as="targetPoint" />
          </mxGeometry>
        </mxCell>
        <mxCell id="l_1M2YiM3meL8GNGFhTw-61" value="MySQL Record:&amp;nbsp;&lt;br&gt;New customer account" style="edgeLabel;html=1;align=center;verticalAlign=middle;resizable=0;points=[];fontSize=10;" parent="l_1M2YiM3meL8GNGFhTw-59" vertex="1" connectable="0">
          <mxGeometry x="-0.3253" relative="1" as="geometry">
            <mxPoint x="8" y="-9" as="offset" />
          </mxGeometry>
        </mxCell>
        <mxCell id="l_1M2YiM3meL8GNGFhTw-66" value="" style="endArrow=classic;html=1;rounded=0;fontSize=10;exitX=1;exitY=0.5;exitDx=0;exitDy=0;entryX=0;entryY=0.5;entryDx=0;entryDy=0;" parent="1" source="zZGCTbQCLXwKK4zY46dJ-43" target="zZGCTbQCLXwKK4zY46dJ-41" edge="1">
          <mxGeometry width="50" height="50" relative="1" as="geometry">
            <mxPoint x="980" y="895" as="sourcePoint" />
            <mxPoint x="1030" y="845" as="targetPoint" />
          </mxGeometry>
        </mxCell>
        <mxCell id="l_1M2YiM3meL8GNGFhTw-80" value="&lt;font style=&quot;font-size: 10px;&quot;&gt;MySQL Record:&amp;nbsp;&lt;br&gt;New account credentials&lt;/font&gt;" style="edgeLabel;html=1;align=center;verticalAlign=middle;resizable=0;points=[];fontSize=10;" parent="l_1M2YiM3meL8GNGFhTw-66" vertex="1" connectable="0">
          <mxGeometry x="-0.4387" relative="1" as="geometry">
            <mxPoint x="16" as="offset" />
          </mxGeometry>
        </mxCell>
        <mxCell id="l_1M2YiM3meL8GNGFhTw-70" value="" style="endArrow=classic;html=1;rounded=0;fontSize=10;exitX=1;exitY=0;exitDx=0;exitDy=0;entryX=0.542;entryY=0;entryDx=0;entryDy=0;entryPerimeter=0;" parent="1" source="l_1M2YiM3meL8GNGFhTw-43" target="zZGCTbQCLXwKK4zY46dJ-42" edge="1">
          <mxGeometry width="50" height="50" relative="1" as="geometry">
            <mxPoint x="355.0000000000002" y="180" as="sourcePoint" />
            <mxPoint x="565" y="427.5" as="targetPoint" />
            <Array as="points">
              <mxPoint x="565" y="181" />
              <mxPoint x="565" y="287.5" />
            </Array>
          </mxGeometry>
        </mxCell>
        <mxCell id="l_1M2YiM3meL8GNGFhTw-71" value="MySQL Record:&amp;nbsp;&lt;br&gt;Customer Credentials" style="edgeLabel;html=1;align=center;verticalAlign=middle;resizable=0;points=[];fontSize=10;" parent="l_1M2YiM3meL8GNGFhTw-70" vertex="1" connectable="0">
          <mxGeometry x="0.0775" y="2" relative="1" as="geometry">
            <mxPoint x="13" y="91" as="offset" />
          </mxGeometry>
        </mxCell>
        <mxCell id="l_1M2YiM3meL8GNGFhTw-72" value="MySQL Record:&amp;nbsp;&lt;br&gt;Provide vendor credentials" style="endArrow=classic;html=1;rounded=0;fontSize=10;exitX=1;exitY=0.5;exitDx=0;exitDy=0;entryX=0;entryY=0.5;entryDx=0;entryDy=0;" parent="1" source="l_1M2YiM3meL8GNGFhTw-7" target="l_1M2YiM3meL8GNGFhTw-10" edge="1">
          <mxGeometry x="0.139" width="50" height="50" relative="1" as="geometry">
            <mxPoint x="720" y="1010" as="sourcePoint" />
            <mxPoint x="840" y="1035" as="targetPoint" />
            <Array as="points" />
            <mxPoint as="offset" />
          </mxGeometry>
        </mxCell>
        <mxCell id="l_1M2YiM3meL8GNGFhTw-75" value="MySQL Record:&amp;nbsp;&lt;br&gt;New vendor account" style="endArrow=classic;html=1;rounded=0;fontSize=10;entryX=0.086;entryY=1.083;entryDx=0;entryDy=0;exitX=1;exitY=0.75;exitDx=0;exitDy=0;entryPerimeter=0;" parent="1" source="l_1M2YiM3meL8GNGFhTw-11" target="l_1M2YiM3meL8GNGFhTw-33" edge="1">
          <mxGeometry x="0.1515" width="50" height="50" relative="1" as="geometry">
            <mxPoint x="870" y="1070" as="sourcePoint" />
            <mxPoint x="800" y="1100" as="targetPoint" />
            <Array as="points">
              <mxPoint x="700" y="646" />
            </Array>
            <mxPoint as="offset" />
          </mxGeometry>
        </mxCell>
        <mxCell id="l_1M2YiM3meL8GNGFhTw-76" value="" style="endArrow=classic;html=1;rounded=0;fontSize=10;exitX=0.999;exitY=0.427;exitDx=0;exitDy=0;exitPerimeter=0;entryX=0;entryY=0.5;entryDx=0;entryDy=0;" parent="1" source="l_1M2YiM3meL8GNGFhTw-10" target="zZGCTbQCLXwKK4zY46dJ-49" edge="1">
          <mxGeometry width="50" height="50" relative="1" as="geometry">
            <mxPoint x="960" y="1030" as="sourcePoint" />
            <mxPoint x="1010" y="880" as="targetPoint" />
            <Array as="points" />
          </mxGeometry>
        </mxCell>
        <mxCell id="l_1M2YiM3meL8GNGFhTw-78" value="&lt;font style=&quot;font-size: 10px;&quot;&gt;MySQL Record:&amp;nbsp;&lt;br&gt;New account credentials&lt;/font&gt;" style="edgeLabel;html=1;align=center;verticalAlign=middle;resizable=0;points=[];fontSize=8;" parent="l_1M2YiM3meL8GNGFhTw-76" vertex="1" connectable="0">
          <mxGeometry x="-0.7436" relative="1" as="geometry">
            <mxPoint x="52" as="offset" />
          </mxGeometry>
        </mxCell>
        <mxCell id="l_1M2YiM3meL8GNGFhTw-82" value="&lt;font style=&quot;font-size: 10px;&quot;&gt;MySQL Record:&amp;nbsp;&lt;br&gt;Confirming credentials&lt;/font&gt;" style="endArrow=classic;html=1;rounded=0;fontSize=6;exitX=0.658;exitY=0.017;exitDx=0;exitDy=0;exitPerimeter=0;" parent="1" source="zZGCTbQCLXwKK4zY46dJ-50" edge="1">
          <mxGeometry x="0.3884" width="50" height="50" relative="1" as="geometry">
            <mxPoint x="1110" y="930" as="sourcePoint" />
            <mxPoint x="800" y="195" as="targetPoint" />
            <Array as="points">
              <mxPoint x="849" y="195" />
            </Array>
            <mxPoint as="offset" />
          </mxGeometry>
        </mxCell>
        <mxCell id="l_1M2YiM3meL8GNGFhTw-83" value="" style="endArrow=classic;html=1;rounded=0;fontSize=10;exitX=0.818;exitY=1;exitDx=0;exitDy=0;exitPerimeter=0;entryX=0.142;entryY=0.017;entryDx=0;entryDy=0;entryPerimeter=0;" parent="1" source="l_1M2YiM3meL8GNGFhTw-33" target="zZGCTbQCLXwKK4zY46dJ-50" edge="1">
          <mxGeometry width="50" height="50" relative="1" as="geometry">
            <mxPoint x="750" y="1210" as="sourcePoint" />
            <mxPoint x="1070" y="910" as="targetPoint" />
            <Array as="points">
              <mxPoint x="784" y="360" />
            </Array>
          </mxGeometry>
        </mxCell>
        <mxCell id="l_1M2YiM3meL8GNGFhTw-84" value="MySQL Record:&lt;br&gt;Vendor Credentials" style="edgeLabel;html=1;align=center;verticalAlign=middle;resizable=0;points=[];fontSize=10;" parent="l_1M2YiM3meL8GNGFhTw-83" vertex="1" connectable="0">
          <mxGeometry x="-0.3527" y="2" relative="1" as="geometry">
            <mxPoint x="-11" y="50" as="offset" />
          </mxGeometry>
        </mxCell>
        <mxCell id="l_1M2YiM3meL8GNGFhTw-85" value="" style="endArrow=classic;html=1;rounded=0;fontSize=10;exitX=1;exitY=0.5;exitDx=0;exitDy=0;entryX=0.5;entryY=1;entryDx=0;entryDy=0;" parent="1" source="zZGCTbQCLXwKK4zY46dJ-50" target="zZGCTbQCLXwKK4zY46dJ-24" edge="1">
          <mxGeometry width="50" height="50" relative="1" as="geometry">
            <mxPoint x="1220" y="905" as="sourcePoint" />
            <mxPoint x="1290" y="410" as="targetPoint" />
            <Array as="points">
              <mxPoint x="1090" y="632" />
            </Array>
          </mxGeometry>
        </mxCell>
        <mxCell id="l_1M2YiM3meL8GNGFhTw-90" value="MySQL Record:&lt;br&gt;Edited store information" style="endArrow=classic;html=1;rounded=0;fontSize=10;exitX=0.5;exitY=0;exitDx=0;exitDy=0;entryX=1;entryY=0.5;entryDx=0;entryDy=0;" parent="1" source="zZGCTbQCLXwKK4zY46dJ-12" target="l_1M2YiM3meL8GNGFhTw-35" edge="1">
          <mxGeometry width="50" height="50" relative="1" as="geometry">
            <mxPoint x="1210" y="245" as="sourcePoint" />
            <mxPoint x="1070" y="660" as="targetPoint" />
            <Array as="points">
              <mxPoint x="1686" y="35" />
            </Array>
          </mxGeometry>
        </mxCell>
        <mxCell id="l_1M2YiM3meL8GNGFhTw-91" value="Input Form&lt;br&gt;Search product" style="endArrow=classic;html=1;rounded=0;fontSize=10;entryX=0;entryY=0.5;entryDx=0;entryDy=0;exitX=0.5;exitY=1;exitDx=0;exitDy=0;" parent="1" source="zZGCTbQCLXwKK4zY46dJ-41" target="l_1M2YiM3meL8GNGFhTw-28" edge="1">
          <mxGeometry width="50" height="50" relative="1" as="geometry">
            <mxPoint x="650" y="600" as="sourcePoint" />
            <mxPoint x="1110" y="990" as="targetPoint" />
            <Array as="points">
              <mxPoint x="560" y="620" />
              <mxPoint x="180" y="620" />
              <mxPoint x="180" y="825" />
            </Array>
          </mxGeometry>
        </mxCell>
        <mxCell id="l_1M2YiM3meL8GNGFhTw-92" value="Input Form:&lt;br&gt;Choose and add product" style="endArrow=classic;html=1;rounded=0;fontSize=10;exitX=0.5;exitY=1;exitDx=0;exitDy=0;entryX=0.5;entryY=0;entryDx=0;entryDy=0;" parent="1" source="l_1M2YiM3meL8GNGFhTw-28" target="l_1M2YiM3meL8GNGFhTw-17" edge="1">
          <mxGeometry x="-0.0909" width="50" height="50" relative="1" as="geometry">
            <mxPoint x="1050" y="1180" as="sourcePoint" />
            <mxPoint x="1100" y="1130" as="targetPoint" />
            <mxPoint as="offset" />
          </mxGeometry>
        </mxCell>
        <mxCell id="l_1M2YiM3meL8GNGFhTw-95" value="MySQL Record:&amp;nbsp;&lt;br&gt;Added product name" style="endArrow=classic;html=1;rounded=0;fontSize=10;entryX=0.5;entryY=0;entryDx=0;entryDy=0;" parent="1" target="l_1M2YiM3meL8GNGFhTw-41" edge="1">
          <mxGeometry width="50" height="50" relative="1" as="geometry">
            <mxPoint x="570" y="1070" as="sourcePoint" />
            <mxPoint x="950" y="1290" as="targetPoint" />
            <Array as="points">
              <mxPoint x="570" y="1130" />
              <mxPoint x="860" y="1130" />
            </Array>
          </mxGeometry>
        </mxCell>
        <mxCell id="l_1M2YiM3meL8GNGFhTw-96" value="&lt;br&gt;Edit Cart&lt;br&gt;&lt;br&gt;HTML/PHP" style="rounded=1;whiteSpace=wrap;html=1;fillColor=#b1ddf0;strokeColor=#10739e;" parent="1" vertex="1">
          <mxGeometry x="280" y="1320" width="120" height="70" as="geometry" />
        </mxCell>
        <mxCell id="l_1M2YiM3meL8GNGFhTw-97" value="7.2" style="rounded=1;whiteSpace=wrap;html=1;fillColor=#1ba1e2;fontColor=#ffffff;strokeColor=#006EAF;" parent="1" vertex="1">
          <mxGeometry x="280" y="1305" width="120" height="27" as="geometry" />
        </mxCell>
        <mxCell id="l_1M2YiM3meL8GNGFhTw-98" value="MySQL Record:&amp;nbsp;&lt;br&gt;New cart information" style="endArrow=classic;html=1;rounded=0;fontSize=10;exitX=0;exitY=0.5;exitDx=0;exitDy=0;" parent="1" source="l_1M2YiM3meL8GNGFhTw-40" edge="1">
          <mxGeometry width="50" height="50" relative="1" as="geometry">
            <mxPoint x="710" y="1250" as="sourcePoint" />
            <mxPoint x="570" y="1230" as="targetPoint" />
            <Array as="points">
              <mxPoint x="580" y="1230" />
            </Array>
          </mxGeometry>
        </mxCell>
        <mxCell id="l_1M2YiM3meL8GNGFhTw-99" value="HTML :&lt;br&gt;View and manage cart information" style="endArrow=classic;html=1;rounded=0;fontSize=10;entryX=0;entryY=0.5;entryDx=0;entryDy=0;exitX=0;exitY=0.5;exitDx=0;exitDy=0;" parent="1" source="l_1M2YiM3meL8GNGFhTw-96" target="l_1M2YiM3meL8GNGFhTw-6" edge="1">
          <mxGeometry x="-0.1507" y="-64" width="50" height="50" relative="1" as="geometry">
            <mxPoint x="530" y="1190" as="sourcePoint" />
            <mxPoint x="530" y="900" as="targetPoint" />
            <Array as="points">
              <mxPoint x="30" y="1355" />
            </Array>
            <mxPoint y="1" as="offset" />
          </mxGeometry>
        </mxCell>
        <mxCell id="l_1M2YiM3meL8GNGFhTw-108" value="&lt;br&gt;Add payment information&lt;br&gt;&lt;br&gt;HTML/PHP" style="rounded=1;whiteSpace=wrap;html=1;fillColor=#b1ddf0;strokeColor=#10739e;" parent="1" vertex="1">
          <mxGeometry x="1240" y="1259.5" width="120" height="70" as="geometry" />
        </mxCell>
        <mxCell id="l_1M2YiM3meL8GNGFhTw-109" value="8.2" style="rounded=1;whiteSpace=wrap;html=1;fillColor=#1ba1e2;fontColor=#ffffff;strokeColor=#006EAF;" parent="1" vertex="1">
          <mxGeometry x="1240" y="1238" width="120" height="31" as="geometry" />
        </mxCell>
        <mxCell id="l_1M2YiM3meL8GNGFhTw-110" value="HTML:&lt;br&gt;Purchasing products" style="endArrow=classic;html=1;rounded=0;fontSize=10;exitX=1;exitY=0.5;exitDx=0;exitDy=0;entryX=0;entryY=0.5;entryDx=0;entryDy=0;" parent="1" source="l_1M2YiM3meL8GNGFhTw-16" target="zZGCTbQCLXwKK4zY46dJ-69" edge="1">
          <mxGeometry x="-0.0736" y="13" width="50" height="50" relative="1" as="geometry">
            <mxPoint x="1190" y="1320" as="sourcePoint" />
            <mxPoint x="960" y="1250" as="targetPoint" />
            <Array as="points">
              <mxPoint x="930" y="1035" />
              <mxPoint x="930" y="1295" />
            </Array>
            <mxPoint as="offset" />
          </mxGeometry>
        </mxCell>
        <mxCell id="l_1M2YiM3meL8GNGFhTw-111" value="MySQL Record:&lt;br&gt;Confirming credentials" style="endArrow=classic;html=1;rounded=0;fontSize=10;exitX=0.75;exitY=1;exitDx=0;exitDy=0;entryX=0.671;entryY=0.033;entryDx=0;entryDy=0;entryPerimeter=0;" parent="1" source="l_1M2YiM3meL8GNGFhTw-108" target="l_1M2YiM3meL8GNGFhTw-49" edge="1">
          <mxGeometry x="-0.3563" width="50" height="50" relative="1" as="geometry">
            <mxPoint x="1240" y="1440" as="sourcePoint" />
            <mxPoint x="1310" y="1430" as="targetPoint" />
            <mxPoint as="offset" />
          </mxGeometry>
        </mxCell>
        <mxCell id="l_1M2YiM3meL8GNGFhTw-112" value="MySQL Record:&lt;br&gt;Approve payment" style="endArrow=classic;html=1;rounded=0;fontSize=10;entryX=0.25;entryY=1;entryDx=0;entryDy=0;exitX=0.162;exitY=0.017;exitDx=0;exitDy=0;exitPerimeter=0;" parent="1" source="l_1M2YiM3meL8GNGFhTw-49" target="l_1M2YiM3meL8GNGFhTw-108" edge="1">
          <mxGeometry x="-0.1865" y="1" width="50" height="50" relative="1" as="geometry">
            <mxPoint x="1260" y="1430" as="sourcePoint" />
            <mxPoint x="1290" y="1290" as="targetPoint" />
            <mxPoint as="offset" />
          </mxGeometry>
        </mxCell>
        <mxCell id="l_1M2YiM3meL8GNGFhTw-130" value="" style="endArrow=classic;html=1;rounded=0;fontSize=10;exitX=0.5;exitY=1;exitDx=0;exitDy=0;entryX=0.5;entryY=0;entryDx=0;entryDy=0;" parent="1" edge="1">
          <mxGeometry width="50" height="50" relative="1" as="geometry">
            <mxPoint x="1490" y="1132" as="sourcePoint" />
            <mxPoint x="1490" y="1282" as="targetPoint" />
            <Array as="points" />
          </mxGeometry>
        </mxCell>
        <mxCell id="l_1M2YiM3meL8GNGFhTw-131" value="MySQL Record:&lt;br&gt;New order" style="edgeLabel;html=1;align=center;verticalAlign=middle;resizable=0;points=[];fontSize=10;rotation=0;" parent="l_1M2YiM3meL8GNGFhTw-130" vertex="1" connectable="0">
          <mxGeometry x="0.1357" relative="1" as="geometry">
            <mxPoint x="40" y="-8" as="offset" />
          </mxGeometry>
        </mxCell>
        <mxCell id="l_1M2YiM3meL8GNGFhTw-133" value="" style="endArrow=classic;html=1;rounded=0;fontSize=10;entryX=0;entryY=0.5;entryDx=0;entryDy=0;exitX=1.008;exitY=0.39;exitDx=0;exitDy=0;exitPerimeter=0;" parent="1" source="l_1M2YiM3meL8GNGFhTw-108" target="l_1M2YiM3meL8GNGFhTw-18" edge="1">
          <mxGeometry width="50" height="50" relative="1" as="geometry">
            <mxPoint x="1370" y="1290" as="sourcePoint" />
            <mxPoint x="1390" y="1080" as="targetPoint" />
            <Array as="points">
              <mxPoint x="1370" y="1287" />
              <mxPoint x="1370" y="1095" />
            </Array>
          </mxGeometry>
        </mxCell>
        <mxCell id="l_1M2YiM3meL8GNGFhTw-134" value="HTML:&lt;br&gt;Finalize shopping" style="edgeLabel;html=1;align=center;verticalAlign=middle;resizable=0;points=[];fontSize=10;" parent="l_1M2YiM3meL8GNGFhTw-133" vertex="1" connectable="0">
          <mxGeometry x="-0.6105" y="-3" relative="1" as="geometry">
            <mxPoint x="-1" y="-33" as="offset" />
          </mxGeometry>
        </mxCell>
        <mxCell id="l_1M2YiM3meL8GNGFhTw-141" value="Input Form:&lt;br&gt;Provide feedback" style="endArrow=classic;html=1;rounded=0;fontSize=10;exitX=0.5;exitY=0;exitDx=0;exitDy=0;entryX=0.5;entryY=1;entryDx=0;entryDy=0;" parent="1" source="l_1M2YiM3meL8GNGFhTw-19" target="zZGCTbQCLXwKK4zY46dJ-80" edge="1">
          <mxGeometry width="50" height="50" relative="1" as="geometry">
            <mxPoint x="1480" y="1050" as="sourcePoint" />
            <mxPoint x="1500" y="990" as="targetPoint" />
          </mxGeometry>
        </mxCell>
        <mxCell id="l_1M2YiM3meL8GNGFhTw-144" value="Manage feedback" style="endArrow=classic;html=1;rounded=0;fontSize=10;exitX=0.152;exitY=0.988;exitDx=0;exitDy=0;exitPerimeter=0;entryX=0.4;entryY=0;entryDx=0;entryDy=0;entryPerimeter=0;" parent="1" source="l_1M2YiM3meL8GNGFhTw-5" target="l_1M2YiM3meL8GNGFhTw-31" edge="1">
          <mxGeometry x="-0.3376" y="-1" width="50" height="50" relative="1" as="geometry">
            <mxPoint x="1410" y="905" as="sourcePoint" />
            <mxPoint x="1690" y="691" as="targetPoint" />
            <mxPoint as="offset" />
          </mxGeometry>
        </mxCell>
        <mxCell id="VehilTBUCw5l90hNRPJL-1" value="" style="endArrow=classic;html=1;rounded=0;exitX=0.14;exitY=-0.075;exitDx=0;exitDy=0;entryX=0.5;entryY=1;entryDx=0;entryDy=0;exitPerimeter=0;" parent="1" source="l_1M2YiM3meL8GNGFhTw-5" target="zZGCTbQCLXwKK4zY46dJ-11" edge="1">
          <mxGeometry x="-0.2258" width="50" height="50" relative="1" as="geometry">
            <mxPoint x="1260" y="990" as="sourcePoint" />
            <mxPoint x="1730" y="310" as="targetPoint" />
            <Array as="points">
              <mxPoint x="1689" y="510" />
            </Array>
            <mxPoint as="offset" />
          </mxGeometry>
        </mxCell>
        <mxCell id="VehilTBUCw5l90hNRPJL-2" value="Input Form&lt;br&gt;Search products" style="endArrow=classic;html=1;rounded=0;exitX=0;exitY=1;exitDx=0;exitDy=0;entryX=0.75;entryY=0;entryDx=0;entryDy=0;" parent="1" source="l_1M2YiM3meL8GNGFhTw-5" target="l_1M2YiM3meL8GNGFhTw-29" edge="1">
          <mxGeometry x="-0.0779" width="50" height="50" relative="1" as="geometry">
            <mxPoint x="1290" y="1050" as="sourcePoint" />
            <mxPoint x="1340" y="1000" as="targetPoint" />
            <Array as="points">
              <mxPoint x="1260" y="610" />
              <mxPoint x="1260" y="750" />
              <mxPoint x="600" y="750" />
            </Array>
            <mxPoint as="offset" />
          </mxGeometry>
        </mxCell>
        <mxCell id="zZGCTbQCLXwKK4zY46dJ-8" value="&lt;br&gt;Edit products&lt;br&gt;&lt;br&gt;HTML/PHP&amp;nbsp;" style="rounded=1;whiteSpace=wrap;html=1;fillColor=#b1ddf0;strokeColor=#10739e;" parent="1" vertex="1">
          <mxGeometry x="1380" y="210" width="120" height="70" as="geometry" />
        </mxCell>
        <mxCell id="zZGCTbQCLXwKK4zY46dJ-9" value="4.3" style="rounded=1;whiteSpace=wrap;html=1;fillColor=#1ba1e2;fontColor=#ffffff;strokeColor=#006EAF;" parent="1" vertex="1">
          <mxGeometry x="1380" y="195" width="120" height="30" as="geometry" />
        </mxCell>
        <mxCell id="zZGCTbQCLXwKK4zY46dJ-11" value="&lt;br&gt;Edit store details&lt;br&gt;&lt;br&gt;HTML/PHP" style="rounded=1;whiteSpace=wrap;html=1;fillColor=#b1ddf0;strokeColor=#10739e;" parent="1" vertex="1">
          <mxGeometry x="1626" y="210" width="120" height="70" as="geometry" />
        </mxCell>
        <mxCell id="zZGCTbQCLXwKK4zY46dJ-12" value="4.4" style="rounded=1;whiteSpace=wrap;html=1;fillColor=#1ba1e2;fontColor=#ffffff;strokeColor=#006EAF;" parent="1" vertex="1">
          <mxGeometry x="1626" y="199" width="120" height="30" as="geometry" />
        </mxCell>
        <mxCell id="zZGCTbQCLXwKK4zY46dJ-15" value="&lt;div style=&quot;text-align: center;&quot;&gt;&lt;span style=&quot;font-size: 11px; background-color: rgb(255, 255, 255);&quot;&gt;HTML:&lt;/span&gt;&lt;/div&gt;&lt;div style=&quot;text-align: center;&quot;&gt;&lt;span style=&quot;font-size: 11px; background-color: rgb(255, 255, 255);&quot;&gt;Edit store&amp;nbsp;&lt;/span&gt;&lt;/div&gt;" style="text;whiteSpace=wrap;html=1;" parent="1" vertex="1">
          <mxGeometry x="1622.5" y="420" width="63.5" height="40" as="geometry" />
        </mxCell>
        <mxCell id="zZGCTbQCLXwKK4zY46dJ-18" value="" style="endArrow=classic;html=1;rounded=0;entryX=0.5;entryY=1;entryDx=0;entryDy=0;exitX=0;exitY=0.5;exitDx=0;exitDy=0;" parent="1" source="l_1M2YiM3meL8GNGFhTw-5" edge="1">
          <mxGeometry x="-0.2258" width="50" height="50" relative="1" as="geometry">
            <mxPoint x="1650" y="590" as="sourcePoint" />
            <mxPoint x="1440" y="280" as="targetPoint" />
            <Array as="points">
              <mxPoint x="1440" y="590" />
            </Array>
            <mxPoint as="offset" />
          </mxGeometry>
        </mxCell>
        <mxCell id="zZGCTbQCLXwKK4zY46dJ-19" value="&lt;div style=&quot;text-align: center;&quot;&gt;&lt;span style=&quot;font-size: 11px; background-color: rgb(255, 255, 255);&quot;&gt;HTML:&amp;nbsp;&lt;/span&gt;&lt;/div&gt;&lt;div style=&quot;text-align: center;&quot;&gt;&lt;span style=&quot;font-size: 11px; background-color: rgb(255, 255, 255);&quot;&gt;Edit products&lt;/span&gt;&lt;/div&gt;" style="text;whiteSpace=wrap;html=1;" parent="1" vertex="1">
          <mxGeometry x="1440" y="420" width="71" height="40" as="geometry" />
        </mxCell>
        <mxCell id="zZGCTbQCLXwKK4zY46dJ-22" value="" style="endArrow=classic;html=1;rounded=0;exitX=0.5;exitY=0;exitDx=0;exitDy=0;entryX=0.364;entryY=1.003;entryDx=0;entryDy=0;entryPerimeter=0;" parent="1" source="zZGCTbQCLXwKK4zY46dJ-9" target="l_1M2YiM3meL8GNGFhTw-35" edge="1">
          <mxGeometry x="-0.2258" width="50" height="50" relative="1" as="geometry">
            <mxPoint x="1622.5" y="350" as="sourcePoint" />
            <mxPoint x="1570" y="140" as="targetPoint" />
            <Array as="points">
              <mxPoint x="1440" y="140" />
              <mxPoint x="1560" y="140" />
            </Array>
            <mxPoint as="offset" />
          </mxGeometry>
        </mxCell>
        <mxCell id="zZGCTbQCLXwKK4zY46dJ-23" value="&lt;span style=&quot;color: rgb(0, 0, 0); font-family: Helvetica; font-size: 10px; font-style: normal; font-variant-ligatures: normal; font-variant-caps: normal; font-weight: 400; letter-spacing: normal; orphans: 2; text-align: center; text-indent: 0px; text-transform: none; widows: 2; word-spacing: 0px; -webkit-text-stroke-width: 0px; background-color: rgb(255, 255, 255); text-decoration-thickness: initial; text-decoration-style: initial; text-decoration-color: initial; float: none; display: inline !important;&quot;&gt;MySQL Record&lt;br&gt;Edited product information&lt;/span&gt;" style="text;whiteSpace=wrap;html=1;" parent="1" vertex="1">
          <mxGeometry x="1440" y="120" width="130" height="40" as="geometry" />
        </mxCell>
        <mxCell id="zZGCTbQCLXwKK4zY46dJ-24" value="&lt;br&gt;Create store&amp;nbsp;&lt;br&gt;&lt;br&gt;HTML/PHP" style="rounded=1;whiteSpace=wrap;html=1;fillColor=#b1ddf0;strokeColor=#10739e;" parent="1" vertex="1">
          <mxGeometry x="1030" y="210" width="120" height="70" as="geometry" />
        </mxCell>
        <mxCell id="zZGCTbQCLXwKK4zY46dJ-25" value="4.1" style="rounded=1;whiteSpace=wrap;html=1;fillColor=#1ba1e2;fontColor=#ffffff;strokeColor=#006EAF;" parent="1" vertex="1">
          <mxGeometry x="1030" y="193" width="120" height="30" as="geometry" />
        </mxCell>
        <mxCell id="zZGCTbQCLXwKK4zY46dJ-28" value="" style="endArrow=classic;html=1;rounded=0;entryX=0.5;entryY=1;entryDx=0;entryDy=0;exitX=0;exitY=0.75;exitDx=0;exitDy=0;" parent="1" source="l_1M2YiM3meL8GNGFhTw-5" edge="1">
          <mxGeometry x="-0.2258" width="50" height="50" relative="1" as="geometry">
            <mxPoint x="1650" y="600" as="sourcePoint" />
            <mxPoint x="1260" y="280" as="targetPoint" />
            <Array as="points">
              <mxPoint x="1260" y="600" />
            </Array>
            <mxPoint as="offset" />
          </mxGeometry>
        </mxCell>
        <mxCell id="zZGCTbQCLXwKK4zY46dJ-29" value="&lt;br&gt;List product&lt;br&gt;&lt;br&gt;HTML/PHP&amp;nbsp;" style="rounded=1;whiteSpace=wrap;html=1;fillColor=#b1ddf0;strokeColor=#10739e;" parent="1" vertex="1">
          <mxGeometry x="1200" y="210" width="120" height="70" as="geometry" />
        </mxCell>
        <mxCell id="zZGCTbQCLXwKK4zY46dJ-30" value="4.2" style="rounded=1;whiteSpace=wrap;html=1;fillColor=#1ba1e2;fontColor=#ffffff;strokeColor=#006EAF;" parent="1" vertex="1">
          <mxGeometry x="1200" y="195" width="120" height="30" as="geometry" />
        </mxCell>
        <mxCell id="zZGCTbQCLXwKK4zY46dJ-31" value="" style="endArrow=classic;html=1;rounded=0;exitX=0.5;exitY=0;exitDx=0;exitDy=0;entryX=0;entryY=0.75;entryDx=0;entryDy=0;" parent="1" target="l_1M2YiM3meL8GNGFhTw-34" edge="1">
          <mxGeometry x="-0.2258" width="50" height="50" relative="1" as="geometry">
            <mxPoint x="1260" y="199.92" as="sourcePoint" />
            <mxPoint x="1380" y="59.92" as="targetPoint" />
            <Array as="points">
              <mxPoint x="1260" y="139.92" />
              <mxPoint x="1260" y="48" />
            </Array>
            <mxPoint as="offset" />
          </mxGeometry>
        </mxCell>
        <mxCell id="zZGCTbQCLXwKK4zY46dJ-32" value="&lt;span style=&quot;color: rgb(0, 0, 0); font-family: Helvetica; font-size: 10px; font-style: normal; font-variant-ligatures: normal; font-variant-caps: normal; font-weight: 400; letter-spacing: normal; orphans: 2; text-align: center; text-indent: 0px; text-transform: none; widows: 2; word-spacing: 0px; -webkit-text-stroke-width: 0px; background-color: rgb(255, 255, 255); text-decoration-thickness: initial; text-decoration-style: initial; text-decoration-color: initial; float: none; display: inline !important;&quot;&gt;MySQL Record:&amp;nbsp;&lt;br&gt;New product information&lt;/span&gt;" style="text;whiteSpace=wrap;html=1;" parent="1" vertex="1">
          <mxGeometry x="1330" y="32" width="130" height="40" as="geometry" />
        </mxCell>
        <mxCell id="zZGCTbQCLXwKK4zY46dJ-36" value="HTML:&lt;br&gt;Create store&lt;br&gt;and List products" style="edgeLabel;html=1;align=center;verticalAlign=middle;resizable=0;points=[];fontSize=10;" parent="1" vertex="1" connectable="0">
          <mxGeometry x="1260.999999264856" y="465.4961113810282" as="geometry">
            <mxPoint x="-132" y="59" as="offset" />
          </mxGeometry>
        </mxCell>
        <mxCell id="zZGCTbQCLXwKK4zY46dJ-38" value="" style="endArrow=classic;html=1;rounded=0;entryX=0;entryY=0.25;entryDx=0;entryDy=0;" parent="1" target="l_1M2YiM3meL8GNGFhTw-34" edge="1">
          <mxGeometry x="-0.2258" width="50" height="50" relative="1" as="geometry">
            <mxPoint x="1088" y="190" as="sourcePoint" />
            <mxPoint x="1320" y="45.08" as="targetPoint" />
            <Array as="points">
              <mxPoint x="1088" y="23" />
            </Array>
            <mxPoint as="offset" />
          </mxGeometry>
        </mxCell>
        <mxCell id="zZGCTbQCLXwKK4zY46dJ-41" value="&lt;br&gt;Login for customer account&lt;br&gt;&lt;br&gt;HTML/PHP" style="rounded=1;whiteSpace=wrap;html=1;fillColor=#b1ddf0;strokeColor=#10739e;" parent="1" vertex="1">
          <mxGeometry x="500" y="460" width="120" height="70" as="geometry" />
        </mxCell>
        <mxCell id="zZGCTbQCLXwKK4zY46dJ-42" value="3.1" style="rounded=1;whiteSpace=wrap;html=1;fillColor=#1ba1e2;fontColor=#ffffff;strokeColor=#006EAF;" parent="1" vertex="1">
          <mxGeometry x="500" y="444" width="120" height="27" as="geometry" />
        </mxCell>
        <mxCell id="zZGCTbQCLXwKK4zY46dJ-43" value="&lt;br&gt;Register for customer account&lt;br&gt;&lt;br&gt;HTML/PHP" style="rounded=1;whiteSpace=wrap;html=1;fillColor=#b1ddf0;strokeColor=#10739e;" parent="1" vertex="1">
          <mxGeometry x="220" y="460" width="120" height="70" as="geometry" />
        </mxCell>
        <mxCell id="zZGCTbQCLXwKK4zY46dJ-44" value="1.1" style="rounded=1;whiteSpace=wrap;html=1;fillColor=#1ba1e2;fontColor=#ffffff;strokeColor=#006EAF;" parent="1" vertex="1">
          <mxGeometry x="220" y="444" width="120" height="25" as="geometry" />
        </mxCell>
        <mxCell id="zZGCTbQCLXwKK4zY46dJ-48" value="" style="endArrow=classic;html=1;rounded=0;exitX=0.25;exitY=0;exitDx=0;exitDy=0;" parent="1" source="zZGCTbQCLXwKK4zY46dJ-42" edge="1">
          <mxGeometry width="50" height="50" relative="1" as="geometry">
            <mxPoint x="410" y="190" as="sourcePoint" />
            <mxPoint x="350" y="200" as="targetPoint" />
            <Array as="points">
              <mxPoint x="530" y="200" />
            </Array>
          </mxGeometry>
        </mxCell>
        <mxCell id="zZGCTbQCLXwKK4zY46dJ-49" value="&lt;br&gt;Login for Vendor account&lt;br&gt;&lt;br&gt;HTML/PHP" style="rounded=1;whiteSpace=wrap;html=1;fillColor=#b1ddf0;strokeColor=#10739e;" parent="1" vertex="1">
          <mxGeometry x="770" y="635" width="120" height="70" as="geometry" />
        </mxCell>
        <mxCell id="zZGCTbQCLXwKK4zY46dJ-50" value="3.2" style="rounded=1;whiteSpace=wrap;html=1;fillColor=#1ba1e2;fontColor=#ffffff;strokeColor=#006EAF;" parent="1" vertex="1">
          <mxGeometry x="770" y="618" width="120" height="27" as="geometry" />
        </mxCell>
        <mxCell id="zZGCTbQCLXwKK4zY46dJ-51" value="HTML:&lt;br&gt;List products" style="text;html=1;align=center;verticalAlign=middle;resizable=0;points=[];autosize=1;strokeColor=none;fillColor=none;" parent="1" vertex="1">
          <mxGeometry x="1252" y="445" width="86" height="41" as="geometry" />
        </mxCell>
        <mxCell id="AD6_e6lMKZ-jqI_7Om2i-11" style="edgeStyle=orthogonalEdgeStyle;rounded=0;orthogonalLoop=1;jettySize=auto;html=1;" parent="1" source="zZGCTbQCLXwKK4zY46dJ-52" edge="1">
          <mxGeometry relative="1" as="geometry">
            <mxPoint x="1580" y="62" as="targetPoint" />
            <Array as="points">
              <mxPoint x="1580" y="810" />
            </Array>
          </mxGeometry>
        </mxCell>
        <mxCell id="zZGCTbQCLXwKK4zY46dJ-52" value="&lt;br&gt;View product&lt;br&gt;&lt;br&gt;HTML/PHP" style="rounded=1;whiteSpace=wrap;html=1;fillColor=#b1ddf0;strokeColor=#10739e;" parent="1" vertex="1">
          <mxGeometry x="787" y="790" width="120" height="70" as="geometry" />
        </mxCell>
        <mxCell id="zZGCTbQCLXwKK4zY46dJ-53" value="5.2" style="rounded=1;whiteSpace=wrap;html=1;fillColor=#1ba1e2;fontColor=#ffffff;strokeColor=#006EAF;" parent="1" vertex="1">
          <mxGeometry x="787" y="780" width="120" height="26" as="geometry" />
        </mxCell>
        <mxCell id="zZGCTbQCLXwKK4zY46dJ-54" value="" style="endArrow=classic;html=1;rounded=0;exitX=0.5;exitY=1;exitDx=0;exitDy=0;entryX=0.5;entryY=0;entryDx=0;entryDy=0;" parent="1" source="zZGCTbQCLXwKK4zY46dJ-49" target="l_1M2YiM3meL8GNGFhTw-29" edge="1">
          <mxGeometry width="50" height="50" relative="1" as="geometry">
            <mxPoint x="830" y="730" as="sourcePoint" />
            <mxPoint x="500" y="720" as="targetPoint" />
            <Array as="points">
              <mxPoint x="830" y="730" />
              <mxPoint x="570" y="730" />
            </Array>
          </mxGeometry>
        </mxCell>
        <mxCell id="zZGCTbQCLXwKK4zY46dJ-55" value="&lt;span style=&quot;color: rgb(0, 0, 0); font-family: Helvetica; font-size: 10px; font-style: normal; font-variant-ligatures: normal; font-variant-caps: normal; font-weight: 400; letter-spacing: normal; orphans: 2; text-align: center; text-indent: 0px; text-transform: none; widows: 2; word-spacing: 0px; -webkit-text-stroke-width: 0px; background-color: rgb(255, 255, 255); text-decoration-thickness: initial; text-decoration-style: initial; text-decoration-color: initial; float: none; display: inline !important;&quot;&gt;&lt;span style=&quot;white-space: pre;&quot;&gt; &lt;/span&gt;Input Form:&lt;br&gt;Search product&lt;/span&gt;" style="text;whiteSpace=wrap;html=1;" parent="1" vertex="1">
          <mxGeometry x="664.5" y="700" width="100" height="40" as="geometry" />
        </mxCell>
        <mxCell id="zZGCTbQCLXwKK4zY46dJ-60" value="&lt;br&gt;View cart&lt;br&gt;&lt;br&gt;HTML/PHP" style="rounded=1;whiteSpace=wrap;html=1;fillColor=#b1ddf0;strokeColor=#10739e;" parent="1" vertex="1">
          <mxGeometry x="450" y="1196" width="120" height="70" as="geometry" />
        </mxCell>
        <mxCell id="zZGCTbQCLXwKK4zY46dJ-61" value="7.1" style="rounded=1;whiteSpace=wrap;html=1;fillColor=#1ba1e2;fontColor=#ffffff;strokeColor=#006EAF;" parent="1" vertex="1">
          <mxGeometry x="450" y="1183" width="120" height="26" as="geometry" />
        </mxCell>
        <mxCell id="zZGCTbQCLXwKK4zY46dJ-62" value="" style="endArrow=classic;html=1;rounded=0;exitX=0;exitY=0.5;exitDx=0;exitDy=0;entryX=0.5;entryY=0;entryDx=0;entryDy=0;" parent="1" source="zZGCTbQCLXwKK4zY46dJ-60" target="l_1M2YiM3meL8GNGFhTw-97" edge="1">
          <mxGeometry width="50" height="50" relative="1" as="geometry">
            <mxPoint x="370" y="1220" as="sourcePoint" />
            <mxPoint x="280" y="1220" as="targetPoint" />
            <Array as="points">
              <mxPoint x="340" y="1231" />
            </Array>
          </mxGeometry>
        </mxCell>
        <mxCell id="zZGCTbQCLXwKK4zY46dJ-63" value="" style="endArrow=classic;html=1;rounded=0;exitX=1;exitY=0.5;exitDx=0;exitDy=0;entryX=0.5;entryY=1;entryDx=0;entryDy=0;" parent="1" source="l_1M2YiM3meL8GNGFhTw-96" target="l_1M2YiM3meL8GNGFhTw-41" edge="1">
          <mxGeometry width="50" height="50" relative="1" as="geometry">
            <mxPoint x="550" y="1340" as="sourcePoint" />
            <mxPoint x="880" y="1360" as="targetPoint" />
            <Array as="points">
              <mxPoint x="860" y="1355" />
            </Array>
          </mxGeometry>
        </mxCell>
        <mxCell id="zZGCTbQCLXwKK4zY46dJ-64" value="MySQL Record:&amp;nbsp;&lt;br&gt;Edited cart information" style="text;html=1;align=center;verticalAlign=middle;resizable=0;points=[];autosize=1;strokeColor=none;fillColor=none;fontSize=10;" parent="1" vertex="1">
          <mxGeometry x="541" y="1327" width="118" height="36" as="geometry" />
        </mxCell>
        <mxCell id="zZGCTbQCLXwKK4zY46dJ-69" value="&lt;br&gt;Add customer information&lt;br&gt;&lt;br&gt;HTML/PHP" style="rounded=1;whiteSpace=wrap;html=1;fillColor=#b1ddf0;strokeColor=#10739e;" parent="1" vertex="1">
          <mxGeometry x="968" y="1260" width="120" height="70" as="geometry" />
        </mxCell>
        <mxCell id="zZGCTbQCLXwKK4zY46dJ-70" value="8.1" style="rounded=1;whiteSpace=wrap;html=1;fillColor=#1ba1e2;fontColor=#ffffff;strokeColor=#006EAF;" parent="1" vertex="1">
          <mxGeometry x="968" y="1240" width="120" height="32" as="geometry" />
        </mxCell>
        <mxCell id="zZGCTbQCLXwKK4zY46dJ-73" value="" style="endArrow=classic;html=1;rounded=0;entryX=0;entryY=0.5;entryDx=0;entryDy=0;exitX=1;exitY=0.5;exitDx=0;exitDy=0;" parent="1" source="zZGCTbQCLXwKK4zY46dJ-69" target="l_1M2YiM3meL8GNGFhTw-108" edge="1">
          <mxGeometry width="50" height="50" relative="1" as="geometry">
            <mxPoint x="1130" y="1295" as="sourcePoint" />
            <mxPoint x="1180" y="1250" as="targetPoint" />
          </mxGeometry>
        </mxCell>
        <mxCell id="zZGCTbQCLXwKK4zY46dJ-74" value="&lt;font style=&quot;font-size: 10px;&quot;&gt;Input Form&lt;br&gt;Customer information credentials&lt;/font&gt;" style="text;html=1;align=center;verticalAlign=middle;resizable=0;points=[];autosize=1;strokeColor=none;fillColor=none;" parent="1" vertex="1">
          <mxGeometry x="1080" y="1252.5" width="165" height="41" as="geometry" />
        </mxCell>
        <mxCell id="zZGCTbQCLXwKK4zY46dJ-75" value="&lt;br&gt;Order Status Page&lt;br&gt;Request&lt;br&gt;&lt;br&gt;HTML/PHP" style="rounded=1;whiteSpace=wrap;html=1;fillColor=#b1ddf0;strokeColor=#10739e;" parent="1" vertex="1">
          <mxGeometry x="1650" y="1060" width="120" height="70" as="geometry" />
        </mxCell>
        <mxCell id="zZGCTbQCLXwKK4zY46dJ-76" value="10.2" style="rounded=1;whiteSpace=wrap;html=1;fillColor=#1ba1e2;fontColor=#ffffff;strokeColor=#006EAF;" parent="1" vertex="1">
          <mxGeometry x="1650" y="1042" width="120" height="24" as="geometry" />
        </mxCell>
        <mxCell id="zZGCTbQCLXwKK4zY46dJ-77" value="" style="endArrow=classic;html=1;rounded=0;entryX=0;entryY=0.5;entryDx=0;entryDy=0;exitX=1;exitY=0.5;exitDx=0;exitDy=0;" parent="1" source="l_1M2YiM3meL8GNGFhTw-28" target="zZGCTbQCLXwKK4zY46dJ-52" edge="1">
          <mxGeometry width="50" height="50" relative="1" as="geometry">
            <mxPoint x="630" y="820" as="sourcePoint" />
            <mxPoint x="680" y="770" as="targetPoint" />
          </mxGeometry>
        </mxCell>
        <mxCell id="zZGCTbQCLXwKK4zY46dJ-78" value="HTML:&lt;br&gt;Selected product ID" style="text;html=1;align=center;verticalAlign=middle;resizable=0;points=[];autosize=1;strokeColor=none;fillColor=none;" parent="1" vertex="1">
          <mxGeometry x="641.5" y="784" width="123" height="41" as="geometry" />
        </mxCell>
        <mxCell id="zZGCTbQCLXwKK4zY46dJ-80" value="&lt;br&gt;Give feedback&lt;br&gt;&lt;br&gt;HTML/PHP" style="rounded=1;whiteSpace=wrap;html=1;fillColor=#b1ddf0;strokeColor=#10739e;" parent="1" vertex="1">
          <mxGeometry x="1430" y="849" width="120" height="70" as="geometry" />
        </mxCell>
        <mxCell id="zZGCTbQCLXwKK4zY46dJ-81" value="11.1" style="rounded=1;whiteSpace=wrap;html=1;fillColor=#1ba1e2;fontColor=#ffffff;strokeColor=#006EAF;" parent="1" vertex="1">
          <mxGeometry x="1430" y="836" width="120" height="24" as="geometry" />
        </mxCell>
        <mxCell id="zZGCTbQCLXwKK4zY46dJ-82" value="" style="endArrow=classic;html=1;rounded=0;exitX=1;exitY=0.5;exitDx=0;exitDy=0;entryX=0;entryY=0.5;entryDx=0;entryDy=0;" parent="1" source="zZGCTbQCLXwKK4zY46dJ-80" target="AD6_e6lMKZ-jqI_7Om2i-6" edge="1">
          <mxGeometry width="50" height="50" relative="1" as="geometry">
            <mxPoint x="1570" y="740" as="sourcePoint" />
            <mxPoint x="1643" y="843" as="targetPoint" />
          </mxGeometry>
        </mxCell>
        <mxCell id="zZGCTbQCLXwKK4zY46dJ-83" value="" style="endArrow=classic;html=1;rounded=0;entryX=0;entryY=0.5;entryDx=0;entryDy=0;" parent="1" target="zZGCTbQCLXwKK4zY46dJ-75" edge="1">
          <mxGeometry width="50" height="50" relative="1" as="geometry">
            <mxPoint x="1550" y="1095" as="sourcePoint" />
            <mxPoint x="1600" y="1050" as="targetPoint" />
          </mxGeometry>
        </mxCell>
        <mxCell id="AD6_e6lMKZ-jqI_7Om2i-26" style="edgeStyle=orthogonalEdgeStyle;rounded=0;orthogonalLoop=1;jettySize=auto;html=1;exitX=0.5;exitY=1;exitDx=0;exitDy=0;entryX=0.577;entryY=0.032;entryDx=0;entryDy=0;entryPerimeter=0;" parent="1" source="zZGCTbQCLXwKK4zY46dJ-84" target="AD6_e6lMKZ-jqI_7Om2i-24" edge="1">
          <mxGeometry relative="1" as="geometry" />
        </mxCell>
        <mxCell id="zZGCTbQCLXwKK4zY46dJ-84" value="Cancel the order&lt;br&gt;&lt;br&gt;HTML/PHP" style="rounded=1;whiteSpace=wrap;html=1;fillColor=#b1ddf0;strokeColor=#10739e;" parent="1" vertex="1">
          <mxGeometry x="1650" y="1215.5" width="120" height="70" as="geometry" />
        </mxCell>
        <mxCell id="zZGCTbQCLXwKK4zY46dJ-85" value="10.3" style="rounded=1;whiteSpace=wrap;html=1;fillColor=#1ba1e2;fontColor=#ffffff;strokeColor=#006EAF;" parent="1" vertex="1">
          <mxGeometry x="1650" y="1200" width="120" height="24" as="geometry" />
        </mxCell>
        <mxCell id="zZGCTbQCLXwKK4zY46dJ-86" value="" style="endArrow=classic;html=1;rounded=0;entryX=0.5;entryY=0;entryDx=0;entryDy=0;" parent="1" target="zZGCTbQCLXwKK4zY46dJ-85" edge="1">
          <mxGeometry width="50" height="50" relative="1" as="geometry">
            <mxPoint x="1710" y="1130" as="sourcePoint" />
            <mxPoint x="1760" y="1080" as="targetPoint" />
          </mxGeometry>
        </mxCell>
        <mxCell id="zZGCTbQCLXwKK4zY46dJ-87" value="HTML:&lt;br&gt;Initiating cancellation of the order" style="text;html=1;align=center;verticalAlign=middle;resizable=0;points=[];autosize=1;strokeColor=none;fillColor=none;fontSize=10;" parent="1" vertex="1">
          <mxGeometry x="1660" y="1141" width="165" height="36" as="geometry" />
        </mxCell>
        <mxCell id="zZGCTbQCLXwKK4zY46dJ-90" value="&lt;font style=&quot;font-size: 10px;&quot;&gt;HTML:&lt;br&gt;View order&lt;/font&gt;" style="text;html=1;align=center;verticalAlign=middle;resizable=0;points=[];autosize=1;strokeColor=none;fillColor=none;" parent="1" vertex="1">
          <mxGeometry x="1564" y="1056" width="66" height="41" as="geometry" />
        </mxCell>
        <mxCell id="AD6_e6lMKZ-jqI_7Om2i-6" value="D7" style="rounded=0;whiteSpace=wrap;html=1;fontSize=14;fillColor=#1ba1e2;fontColor=#ffffff;strokeColor=#006EAF;" parent="1" vertex="1">
          <mxGeometry x="1630" y="869" width="30" height="30" as="geometry" />
        </mxCell>
        <mxCell id="AD6_e6lMKZ-jqI_7Om2i-7" value="&lt;font style=&quot;font-size: 12px;&quot;&gt;MySQL: &lt;br&gt;Feedback Table&lt;/font&gt;" style="rounded=0;whiteSpace=wrap;html=1;fontSize=14;fillColor=#b1ddf0;strokeColor=#10739e;" parent="1" vertex="1">
          <mxGeometry x="1660" y="869" width="120" height="30" as="geometry" />
        </mxCell>
        <mxCell id="AD6_e6lMKZ-jqI_7Om2i-8" value="" style="endArrow=classic;html=1;rounded=0;entryX=0.442;entryY=1;entryDx=0;entryDy=0;entryPerimeter=0;" parent="1" target="l_1M2YiM3meL8GNGFhTw-30" edge="1">
          <mxGeometry width="50" height="50" relative="1" as="geometry">
            <mxPoint x="1695" y="866" as="sourcePoint" />
            <mxPoint x="1640" y="850" as="targetPoint" />
          </mxGeometry>
        </mxCell>
        <mxCell id="zZGCTbQCLXwKK4zY46dJ-39" value="&lt;span style=&quot;color: rgb(0, 0, 0); font-family: Helvetica; font-size: 10px; font-style: normal; font-variant-ligatures: normal; font-variant-caps: normal; font-weight: 400; letter-spacing: normal; orphans: 2; text-align: center; text-indent: 0px; text-transform: none; widows: 2; word-spacing: 0px; -webkit-text-stroke-width: 0px; background-color: rgb(255, 255, 255); text-decoration-thickness: initial; text-decoration-style: initial; text-decoration-color: initial; float: none; display: inline !important;&quot;&gt;MySQL Record:&amp;nbsp;&lt;br&gt;New store information&lt;/span&gt;" style="text;whiteSpace=wrap;html=1;" parent="1" vertex="1">
          <mxGeometry x="1131" y="2" width="130" height="40" as="geometry" />
        </mxCell>
        <mxCell id="AD6_e6lMKZ-jqI_7Om2i-15" value="&lt;div style=&quot;text-align: center;&quot;&gt;&lt;span style=&quot;font-size: 10px; background-color: rgb(255, 255, 255);&quot;&gt;MySQL Record:&lt;/span&gt;&lt;/div&gt;&lt;div style=&quot;text-align: center;&quot;&gt;&lt;span style=&quot;font-size: 10px; background-color: rgb(255, 255, 255);&quot;&gt;Requested Product ID&lt;/span&gt;&lt;/div&gt;" style="text;whiteSpace=wrap;html=1;" parent="1" vertex="1">
          <mxGeometry x="1075" y="760" width="77" height="51" as="geometry" />
        </mxCell>
        <mxCell id="AD6_e6lMKZ-jqI_7Om2i-17" value="&lt;div style=&quot;text-align: center;&quot;&gt;&lt;span style=&quot;font-size: 10px; background-color: rgb(255, 255, 255);&quot;&gt;MySQL Record:&lt;/span&gt;&lt;/div&gt;&lt;div style=&quot;text-align: center;&quot;&gt;&lt;span style=&quot;font-size: 10px; background-color: rgb(255, 255, 255);&quot;&gt;Requested Product&lt;/span&gt;&lt;/div&gt;" style="text;whiteSpace=wrap;html=1;" parent="1" vertex="1">
          <mxGeometry x="1037" y="831" width="77" height="51" as="geometry" />
        </mxCell>
        <mxCell id="AD6_e6lMKZ-jqI_7Om2i-22" value="MySQL Record:&lt;br&gt;New feedback" style="text;html=1;strokeColor=none;fillColor=none;align=center;verticalAlign=middle;whiteSpace=wrap;rounded=0;" parent="1" vertex="1">
          <mxGeometry x="1560" y="886" width="60" height="61" as="geometry" />
        </mxCell>
        <mxCell id="AD6_e6lMKZ-jqI_7Om2i-23" value="MySQL Record:&lt;br&gt;Requested Feedback" style="text;html=1;strokeColor=none;fillColor=none;align=center;verticalAlign=middle;whiteSpace=wrap;rounded=0;" parent="1" vertex="1">
          <mxGeometry x="1695" y="811" width="113" height="30" as="geometry" />
        </mxCell>
        <mxCell id="AD6_e6lMKZ-jqI_7Om2i-24" value="&lt;font style=&quot;font-size: 12px;&quot;&gt;MySQL: Cancelled Orders Table&lt;/font&gt;" style="rounded=0;whiteSpace=wrap;html=1;fontSize=14;fillColor=#b1ddf0;strokeColor=#10739e;" parent="1" vertex="1">
          <mxGeometry x="1647" y="1383" width="110" height="30" as="geometry" />
        </mxCell>
        <mxCell id="AD6_e6lMKZ-jqI_7Om2i-25" value="D7" style="rounded=0;whiteSpace=wrap;html=1;fontSize=14;fillColor=#1ba1e2;fontColor=#ffffff;strokeColor=#006EAF;" parent="1" vertex="1">
          <mxGeometry x="1617" y="1383" width="30" height="30" as="geometry" />
        </mxCell>
        <mxCell id="AD6_e6lMKZ-jqI_7Om2i-27" value="MySQL Record:&lt;br&gt;New Cancelled Order" style="text;html=1;strokeColor=none;fillColor=none;align=center;verticalAlign=middle;whiteSpace=wrap;rounded=0;" parent="1" vertex="1">
          <mxGeometry x="1725" y="1320" width="88" height="30" as="geometry" />
        </mxCell>
        <mxCell id="VV0xOhM-hFCNcIZ6rmg7-1" style="edgeStyle=orthogonalEdgeStyle;rounded=0;orthogonalLoop=1;jettySize=auto;html=1;exitX=1;exitY=0.5;exitDx=0;exitDy=0;entryX=0;entryY=0.25;entryDx=0;entryDy=0;" edge="1" parent="1" source="AD6_e6lMKZ-jqI_7Om2i-28" target="l_1M2YiM3meL8GNGFhTw-18">
          <mxGeometry relative="1" as="geometry" />
        </mxCell>
        <mxCell id="AD6_e6lMKZ-jqI_7Om2i-28" value="&lt;font style=&quot;font-size: 12px;&quot;&gt;Paper Form:&lt;br&gt;Backup files of payment&lt;br&gt;&lt;/font&gt;" style="rounded=0;whiteSpace=wrap;html=1;fontSize=14;fillColor=#b1ddf0;strokeColor=#10739e;" parent="1" vertex="1">
          <mxGeometry x="1171.5" y="1056" width="131" height="44" as="geometry" />
        </mxCell>
        <mxCell id="AD6_e6lMKZ-jqI_7Om2i-29" value="D8" style="rounded=0;whiteSpace=wrap;html=1;fontSize=14;fillColor=#1ba1e2;fontColor=#ffffff;strokeColor=#006EAF;" parent="1" vertex="1">
          <mxGeometry x="1133.5" y="1056" width="38" height="44" as="geometry" />
        </mxCell>
        <mxCell id="AD6_e6lMKZ-jqI_7Om2i-34" value="" style="endArrow=none;dashed=1;html=1;dashPattern=1 3;strokeWidth=2;rounded=0;" parent="1" edge="1">
          <mxGeometry width="50" height="50" relative="1" as="geometry">
            <mxPoint x="40" y="543" as="sourcePoint" />
            <mxPoint x="50" y="641" as="targetPoint" />
            <Array as="points">
              <mxPoint x="354" y="549" />
              <mxPoint x="354" y="604" />
            </Array>
          </mxGeometry>
        </mxCell>
        <mxCell id="AD6_e6lMKZ-jqI_7Om2i-35" value="" style="endArrow=none;dashed=1;html=1;dashPattern=1 3;strokeWidth=2;rounded=0;" parent="1" edge="1">
          <mxGeometry width="50" height="50" relative="1" as="geometry">
            <mxPoint x="255" y="638" as="sourcePoint" />
            <mxPoint x="259" y="721" as="targetPoint" />
            <Array as="points">
              <mxPoint x="482" y="643" />
              <mxPoint x="487" y="706" />
            </Array>
          </mxGeometry>
        </mxCell>
        <mxCell id="AD6_e6lMKZ-jqI_7Om2i-36" value="" style="endArrow=none;dashed=1;html=1;dashPattern=1 3;strokeWidth=2;rounded=0;" parent="1" edge="1">
          <mxGeometry width="50" height="50" relative="1" as="geometry">
            <mxPoint x="1779" y="400" as="sourcePoint" />
            <mxPoint x="1779" y="660" as="targetPoint" />
            <Array as="points">
              <mxPoint x="1666" y="403" />
              <mxPoint x="1235" y="413" />
              <mxPoint x="1217" y="640" />
              <mxPoint x="1499" y="651" />
            </Array>
          </mxGeometry>
        </mxCell>
      </root>
    </mxGraphModel>
  </diagram>
</mxfile>
